<?xml version="1.0" encoding="UTF-8"?>
<svg xmlns="http://www.w3.org/2000/svg" viewBox="0 0 1240 1070" font-family="'Segoe UI',Arial,sans-serif">
<style>
 .bg{fill:#ffffff}
 .chip{fill:#eef2ff;stroke:#4f46e5;stroke-width:2}
 .box{fill:#f8fafc;stroke:#94a3b8;stroke-width:1.5}
 .live{fill:#fff7ed;stroke:#d97706;stroke-width:1.4}
 .wire{stroke:#334155;stroke-width:1.6;fill:none}
 .gnd{stroke:#334155;stroke-width:1.6;fill:none}
 .t{fill:#1e293b}
 .tb{fill:#1e293b;font-weight:600}
 .tg{fill:#64748b}
 .tm{fill:#b45309;font-weight:600}
 .ti{fill:#4f46e5;font-weight:600}
 .mono{font-family:'Consolas','Courier New',monospace}
 .s{font-size:12px}
 .m{font-size:14px}
</style>
<rect class="bg" x="0" y="0" width="1240" height="1070"/>

<text x="40" y="46" class="tb" font-size="26">N9XCR — TX Band-Select Switch</text>
<text x="40" y="72" class="tg" font-size="15">pSemi PE42512A · UltraCMOS SP12T · 9 kHz–8 GHz · switched at exciter level (≤ +19 dBm, cold-switch)</text>

<!-- supply -->
<path class="wire" d="M560 180 V128"/>
<text x="560" y="120" text-anchor="middle" class="ti s">VDD 3.3 V</text>
<text x="560" y="104" text-anchor="middle" class="tg s">+ 0.1 µF ∥ 1 µF to GND · IDD ≈ 200 µA</text>
<path class="wire" d="M680 180 V150"/>
<path class="gnd" d="M672 150 h16 M675 154 h10 M678 158 h4"/>
<text x="700" y="140" class="t s">VSS_EXT → GND</text>
<text x="700" y="125" class="tg s">internal −V generator ON (normal mode)</text>

<!-- chip -->
<rect class="chip" x="470" y="180" width="300" height="600" rx="10"/>
<text x="620" y="212" text-anchor="middle" class="ti" font-size="20">PE42512A</text>
<text x="620" y="232" text-anchor="middle" class="tg s">SP12T absorptive · 32-QFN 5×5</text>
<text x="620" y="770" text-anchor="middle" class="tg s">exposed pad → GND</text>

<!-- RFC in -->
<rect class="box" x="40" y="435" width="240" height="90" rx="6"/>
<text x="160" y="467" text-anchor="middle" class="tb m">SDR onboard PA (exciter)</text>
<text x="160" y="489" text-anchor="middle" class="t s">~ +19 dBm / 80 mW</text>
<text x="160" y="509" text-anchor="middle" class="tg s">linear, backed-off — no DPD</text>
<path class="wire" d="M280 480 H470"/>
<circle cx="470" cy="480" r="3" fill="#4f46e5"/>
<text x="375" y="472" text-anchor="middle" class="ti s">RFC</text>

<!-- ports header -->
<text x="824" y="238" class="tg s">→ per-band chains (BPF → driver → final → LPF → antenna)</text>

<!-- live pills -->
<rect class="live" x="816" y="371" width="388" height="32" rx="6"/>
<rect class="live" x="816" y="547" width="388" height="32" rx="6"/>
<rect class="live" x="816" y="591" width="388" height="32" rx="6"/>
<rect class="live" x="816" y="635" width="388" height="32" rx="6"/>

<!-- RF1 -->
<path class="wire" d="M770 255 H812"/><circle cx="770" cy="255" r="2.5" fill="#4f46e5"/>
<text x="824" y="259" class="t s"><tspan class="tb">RF1</tspan> · 4050–6075 MHz</text>
<text x="980" y="259" class="tg s">lowest-loss port</text>
<!-- RF2 -->
<path class="wire" d="M770 299 H812"/><circle cx="770" cy="299" r="2.5" fill="#4f46e5"/>
<text x="824" y="303" class="t s"><tspan class="tb">RF2</tspan> · 1800–2700 MHz</text>
<!-- RF3 -->
<path class="wire" d="M770 343 H812"/><circle cx="770" cy="343" r="2.5" fill="#4f46e5"/>
<text x="824" y="347" class="t s"><tspan class="tb">RF3</tspan> · 800–1200 MHz</text>
<!-- RF4 live -->
<path class="wire" d="M770 387 H812"/><circle cx="770" cy="387" r="2.5" fill="#4f46e5"/>
<text x="824" y="391" class="t s"><tspan class="tb">RF4</tspan> · 355–533 MHz</text>
<text x="980" y="391" class="tm s">★ 70 cm (420–450)</text>
<!-- RF5 -->
<path class="wire" d="M770 431 H812"/><circle cx="770" cy="431" r="2.5" fill="#4f46e5"/>
<text x="824" y="435" class="t s"><tspan class="tb">RF5</tspan> · 158–237 MHz</text>
<!-- RF6 -->
<path class="wire" d="M770 475 H812"/><circle cx="770" cy="475" r="2.5" fill="#4f46e5"/>
<text x="824" y="479" class="t s"><tspan class="tb">RF6</tspan> · 70–105 MHz</text>
<!-- RF7 dummy -->
<path class="wire" d="M770 519 H812"/><circle cx="770" cy="519" r="2.5" fill="#4f46e5"/>
<text x="824" y="523" class="t s"><tspan class="tb">RF7</tspan> · 50 Ω dummy load</text>
<text x="980" y="523" class="tg s">low-level park (term → GND)</text>
<!-- RF8 live -->
<path class="wire" d="M770 563 H812"/><circle cx="770" cy="563" r="2.5" fill="#4f46e5"/>
<text x="824" y="567" class="t s"><tspan class="tb">RF8</tspan> · 105–158 MHz</text>
<text x="980" y="567" class="tm s">★ 2 m (144–148)</text>
<!-- RF9 live -->
<path class="wire" d="M770 607 H812"/><circle cx="770" cy="607" r="2.5" fill="#4f46e5"/>
<text x="824" y="611" class="t s"><tspan class="tb">RF9</tspan> · 237–355 MHz</text>
<text x="980" y="611" class="tm s">★ 222 (222–225)</text>
<!-- RF10 live -->
<path class="wire" d="M770 651 H812"/><circle cx="770" cy="651" r="2.5" fill="#4f46e5"/>
<text x="824" y="655" class="t s"><tspan class="tb">RF10</tspan> · 533–800 MHz</text>
<text x="980" y="655" class="tm s">★ 902 (902–928)</text>
<!-- RF11 -->
<path class="wire" d="M770 695 H812"/><circle cx="770" cy="695" r="2.5" fill="#4f46e5"/>
<text x="824" y="699" class="t s"><tspan class="tb">RF11</tspan> · 1200–1800 MHz</text>
<!-- RF12 -->
<path class="wire" d="M770 739 H812"/><circle cx="770" cy="739" r="2.5" fill="#4f46e5"/>
<text x="824" y="743" class="t s"><tspan class="tb">RF12</tspan> · 2700–4050 MHz</text>

<!-- control pins -->
<path class="wire" d="M515 780 V850"/>
<path class="wire" d="M555 780 V850"/>
<path class="wire" d="M595 780 V850"/>
<path class="wire" d="M635 780 V850"/>
<text x="515" y="800" text-anchor="middle" class="ti s">V1</text>
<text x="555" y="800" text-anchor="middle" class="ti s">V2</text>
<text x="595" y="800" text-anchor="middle" class="ti s">V3</text>
<text x="635" y="800" text-anchor="middle" class="ti s">V4</text>
<path class="wire" d="M705 780 V812"/>
<path class="gnd" d="M697 812 h16 M700 816 h10 M703 820 h4"/>
<text x="722" y="800" class="ti s">LS</text>
<text x="722" y="819" class="t s">→ GND (logic-0 map)</text>
<text x="722" y="835" class="tg s">also improves IL / isolation</text>

<!-- MCU box -->
<rect class="box" x="380" y="850" width="260" height="110" rx="6"/>
<text x="510" y="880" text-anchor="middle" class="tb m">Control MCU</text>
<text x="510" y="903" text-anchor="middle" class="t s">ESP32 / RP2040 — 4 GPIO</text>
<text x="510" y="922" text-anchor="middle" class="t s">drive V1 · V2 · V3 · V4</text>
<text x="510" y="943" text-anchor="middle" class="tg s">LS hard-tied low (saves 1 GPIO)</text>

<!-- decode table -->
<rect class="box" x="820" y="800" width="384" height="250" rx="6"/>
<text x="836" y="824" class="tb s">Band select — LS = 0 map  (V4 V3 V2 V1 → RFC–RFn)</text>
<text x="836" y="854" class="t s">RF1</text><text x="892" y="854" class="t s mono">0000</text>
<text x="836" y="878" class="t s">RF2</text><text x="892" y="878" class="t s mono">1000</text>
<text x="836" y="902" class="t s">RF3</text><text x="892" y="902" class="t s mono">0100</text>
<text x="836" y="926" class="t s">RF4</text><text x="892" y="926" class="t s mono">1100</text>
<text x="836" y="950" class="t s">RF5</text><text x="892" y="950" class="t s mono">0010</text>
<text x="836" y="974" class="t s">RF6</text><text x="892" y="974" class="t s mono">1010</text>
<text x="1020" y="854" class="t s">RF7</text><text x="1082" y="854" class="t s mono">0110</text>
<text x="1020" y="878" class="t s">RF8</text><text x="1082" y="878" class="t s mono">1110</text>
<text x="1020" y="902" class="t s">RF9</text><text x="1082" y="902" class="t s mono">0001</text>
<text x="1020" y="926" class="t s">RF10</text><text x="1082" y="926" class="t s mono">1001</text>
<text x="1020" y="950" class="t s">RF11</text><text x="1082" y="950" class="t s mono">0101</text>
<text x="1020" y="974" class="t s">RF12</text><text x="1082" y="974" class="t s mono">1101</text>
<line x1="836" y1="990" x2="1188" y2="990" stroke="#cbd5e1" stroke-width="1"/>
<text x="836" y="1012" class="tm s">Park / all-isolated (TX-inhibit):</text>
<text x="1082" y="1012" class="tm s mono">0011</text>
<text x="836" y="1034" class="tg s">LS floats high (1 MΩ pull-up) — tie low deliberately.</text>

<!-- notes box -->
<rect class="box" x="40" y="560" width="400" height="300" rx="6"/>
<text x="56" y="586" class="tb m">Design notes</text>
<text x="56" y="612" class="t s">• No DC-block caps — all RF ports sit at 0 VDC.</text>
<text x="56" y="636" class="t s">• Cold-switch only (no TX during band change).</text>
<text x="68" y="658" class="tg s">Hot-switch limit 20 dBm above 100 MHz.</text>
<text x="56" y="684" class="t s">• IL &lt; 1 dB, isolation ~40–60 dB at &lt; 1 GHz.</text>
<text x="56" y="710" class="t s">• Ports assigned by loss tier: RF1 / RF12 are</text>
<text x="68" y="732" class="tg s">lowest-loss → carry the highest bands.</text>
<text x="56" y="758" class="t s">• ★ = the 4 bands actually built</text>
<text x="68" y="780" class="tg s">(2 m / 222 / 70 cm / 902).</text>
<text x="56" y="806" class="t s">• Other ports = 1.5:1 sub-octave slices for</text>
<text x="68" y="828" class="tg s">full 70 MHz–6 GHz coverage (design</text>
<text x="68" y="848" class="tg s">completeness — not built).</text>
</svg>
