<svg xmlns="http://www.w3.org/2000/svg" width="1720" height="1248" viewBox="0 0 860 624" role="img" xmlns:xlink="http://www.w3.org/1999/xlink">
<title>TX cleanup bandpass – 222 (RF5, slice 158–237 MHz) – tunable build</title>
<style>text{font-family:Arial,Helvetica,sans-serif}.h1{font-size:17px;font-weight:700;fill:#2C2C2A}.h2{font-size:11px;fill:#56554f}.w{stroke:#2C2C2A;stroke-width:1.6;fill:none}.gnd{stroke:#7a7972;stroke-width:1.4}.lbl{font-size:11px;font-weight:600;fill:#2C2C2A}.val{font-size:10px;fill:#56554f}.sec{font-size:10px;font-weight:700;fill:#6b6a64}.port{font-size:11px;font-weight:700;fill:#2C2C2A}.cap2{font-size:10px;fill:#6b6a64}.th{font-size:10px;font-weight:700;fill:#2C2C2A}.td{font-size:10px;fill:#2C2C2A}.div{stroke:#888780;stroke-width:1.1;stroke-dasharray:4 3}.box{fill:#F1EFE8;stroke:#888780;stroke-width:1.1}</style>
<text class="h1" x="30" y="34">TX cleanup bandpass – 222 (RF5, slice 158–237 MHz)</text>
<text class="h2" x="30" y="52">Tunable build: trimmer caps + air-wound inductors, 50 Ω, low level (~80 mW). Ham band 222–225. Values are tuning targets.</text>
<text class="port" x="30" y="174">RF IN</text>
<text class="port" x="798" y="174">RF OUT</text>
<line x1="70" y1="170" x2="150" y2="170" class="w"/>
<line x1="150" y1="170" x2="206" y2="170" class="w"/>
<line x1="206" y1="161" x2="206" y2="179" class="w"/><line x1="214" y1="161" x2="214" y2="179" class="w"/><line x1="200" y1="180" x2="220" y2="160" class="w"/><path d="M220 160 l-6 1 l3 5 z" fill="#2C2C2A"/>
<line x1="214" y1="170" x2="270" y2="170" class="w"/>
<text class="lbl" x="210" y="150" text-anchor="middle">C1</text>
<text class="val" x="210" y="162" text-anchor="middle">15 pF</text>
<line x1="270" y1="170" x2="326" y2="170" class="w"/>
<line x1="326" y1="161" x2="326" y2="179" class="w"/><line x1="334" y1="161" x2="334" y2="179" class="w"/><line x1="320" y1="180" x2="340" y2="160" class="w"/><path d="M340 160 l-6 1 l3 5 z" fill="#2C2C2A"/>
<line x1="334" y1="170" x2="390" y2="170" class="w"/>
<text class="lbl" x="330" y="150" text-anchor="middle">C2</text>
<text class="val" x="330" y="162" text-anchor="middle">15 pF</text>
<line x1="390" y1="170" x2="470" y2="170" class="w"/>
<line x1="470" y1="170" x2="509" y2="170" class="w"/>
<path d="M509 170 a7 7 0 0 1 14 0 a7 7 0 0 1 14 0 a7 7 0 0 1 14 0" class="w"/>
<line x1="551" y1="170" x2="590" y2="170" class="w"/>
<text class="lbl" x="530" y="150" text-anchor="middle">L4</text>
<text class="val" x="530" y="162" text-anchor="middle">46 nH</text>
<line x1="590" y1="170" x2="629" y2="170" class="w"/>
<path d="M629 170 a7 7 0 0 1 14 0 a7 7 0 0 1 14 0 a7 7 0 0 1 14 0" class="w"/>
<line x1="671" y1="170" x2="710" y2="170" class="w"/>
<text class="lbl" x="650" y="150" text-anchor="middle">L5</text>
<text class="val" x="650" y="162" text-anchor="middle">46 nH</text>
<line x1="710" y1="170" x2="790" y2="170" class="w"/>
<line x1="140" y1="300" x2="720" y2="300" class="gnd"/>
<line x1="150" y1="170" x2="150" y2="300" class="w"/>
<path d="M150 182 a7 7 0 0 1 0 35.3 a7 7 0 0 1 0 35.3 a7 7 0 0 1 0 35.3" class="w"/>
<line x1="145" y1="300" x2="155" y2="306" class="gnd"/>
<text class="lbl" x="164" y="233">L1</text>
<text class="val" x="164" y="246">44 nH</text>
<line x1="270" y1="170" x2="270" y2="300" class="w"/>
<path d="M270 182 a7 7 0 0 1 0 35.3 a7 7 0 0 1 0 35.3 a7 7 0 0 1 0 35.3" class="w"/>
<line x1="265" y1="300" x2="275" y2="306" class="gnd"/>
<text class="lbl" x="284" y="233">L2</text>
<text class="val" x="284" y="246">26 nH</text>
<line x1="390" y1="170" x2="390" y2="300" class="w"/>
<path d="M390 182 a7 7 0 0 1 0 35.3 a7 7 0 0 1 0 35.3 a7 7 0 0 1 0 35.3" class="w"/>
<line x1="385" y1="300" x2="395" y2="306" class="gnd"/>
<text class="lbl" x="404" y="233">L3</text>
<text class="val" x="404" y="246">44 nH</text>
<line x1="470" y1="170" x2="470" y2="300" class="w"/>
<line x1="461" y1="231" x2="479" y2="231" class="w"/><line x1="461" y1="239" x2="479" y2="239" class="w"/><line x1="460" y1="245" x2="480" y2="225" class="w"/><path d="M480 225 l-6 1 l3 5 z" fill="#2C2C2A"/>
<line x1="465" y1="300" x2="475" y2="306" class="gnd"/>
<text class="lbl" x="484" y="233">C3</text>
<text class="val" x="484" y="246">15 pF</text>
<line x1="590" y1="170" x2="590" y2="300" class="w"/>
<line x1="581" y1="231" x2="599" y2="231" class="w"/><line x1="581" y1="239" x2="599" y2="239" class="w"/><line x1="580" y1="245" x2="600" y2="225" class="w"/><path d="M600 225 l-6 1 l3 5 z" fill="#2C2C2A"/>
<line x1="585" y1="300" x2="595" y2="306" class="gnd"/>
<text class="lbl" x="604" y="233">C4</text>
<text class="val" x="604" y="246">27 pF</text>
<line x1="710" y1="170" x2="710" y2="300" class="w"/>
<line x1="701" y1="231" x2="719" y2="231" class="w"/><line x1="701" y1="239" x2="719" y2="239" class="w"/><line x1="700" y1="245" x2="720" y2="225" class="w"/><path d="M720 225 l-6 1 l3 5 z" fill="#2C2C2A"/>
<line x1="705" y1="300" x2="715" y2="306" class="gnd"/>
<text class="lbl" x="724" y="233">C5</text>
<text class="val" x="724" y="246">15 pF</text>
<line x1="430" y1="120" x2="430" y2="310" class="div"/>
<text class="sec" x="270" y="118" text-anchor="middle">HIGHPASS (lower edge)</text>
<text class="sec" x="590" y="118" text-anchor="middle">LOWPASS (upper edge)</text>
<rect class="box" x="30" y="360" width="800" height="248" rx="6"/>
<text class="h1" x="44" y="384" style="font-size:13px">Bill of materials (one board, tunable)</text>
<text class="th" x="44" y="404">Ref</text>
<text class="th" x="190" y="404">Value (target)</text>
<text class="th" x="300" y="404">Type / part</text>
<text class="th" x="760" y="404">Qty</text>
<line x1="40" y1="410" x2="820" y2="410" class="div"/>
<text class="td" x="44" y="426">L1, L3</text>
<text class="td" x="190" y="426">44 nH</text>
<text class="td" x="300" y="426">air-wound Cu (tunable by turns)</text>
<text class="td" x="760" y="426">2</text>
<text class="td" x="44" y="443">L2</text>
<text class="td" x="190" y="443">26 nH</text>
<text class="td" x="300" y="443">air-wound Cu (tunable by turns)</text>
<text class="td" x="760" y="443">1</text>
<text class="td" x="44" y="460">L4, L5</text>
<text class="td" x="190" y="460">46 nH</text>
<text class="td" x="300" y="460">air-wound Cu (tunable by turns)</text>
<text class="td" x="760" y="460">2</text>
<text class="td" x="44" y="477">C1, C2, C3, C5</text>
<text class="td" x="190" y="477">15 pF</text>
<text class="td" x="300" y="477">trimmer 1–30 pF (Johanson 5602)</text>
<text class="td" x="760" y="477">4</text>
<text class="td" x="44" y="494">C4</text>
<text class="td" x="190" y="494">27 pF</text>
<text class="td" x="300" y="494">trimmer 1–30 pF (Johanson 5602)</text>
<text class="td" x="760" y="494">1</text>
<text class="td" x="44" y="511">—</text>
<text class="td" x="190" y="511">—</text>
<text class="td" x="300" y="511">silver-plated Cu wire ~20 AWG (air-cores)</text>
<text class="td" x="760" y="511">1</text>
<text class="td" x="44" y="528">J1, J2</text>
<text class="td" x="190" y="528">SMA</text>
<text class="td" x="300" y="528">Amphenol 901-10513-1 edge-launch</text>
<text class="td" x="760" y="528">2</text>
<text class="td" x="44" y="545">PCB</text>
<text class="td" x="190" y="545">—</text>
<text class="td" x="300" y="545">FR-4 (or copper-clad)</text>
<text class="td" x="760" y="545">1</text>
<text class="cap2" x="44" y="584">Caps = Knowles Johanson Giga-Trim sapphire piston trimmers (Q&gt;3000); pick a range that centers the target.</text>
<text class="cap2" x="44" y="600">Air-wound inductors tuned by turn spacing (no good variable inductor exists at UHF). DigiKey PNs: docs/bom.md.</text>
</svg>