<svg xmlns="http://www.w3.org/2000/svg" width="920" viewBox="0 0 920 844" role="img">
<title>Transmit signal chain - all band paths, with per-device working ranges</title>
<desc>The full VHF/UHF transmit chain: a 7020-SDR exciter feeds the PE42512A SP12T band-select at low level, fanning out to all twelve ports. Each populated port is a band path - bandpass filter, CGH40010 driver, a power final, and a low-pass filter to a 50 W output. Every device box shows its technical working range: the BPF is cut slice-wide to pass the whole port; the CGH40010 driver works DC to 6 GHz; the MRF101AN final 1.8 to 250 MHz and the CGH40120F final DC to 1.5 GHz are broadband and cover each slice and beyond; microwave finals for 13/9/5 cm are TBD; the LPF passes from DC up to its cutoff. The BPF and LPF pass the whole band-select slice; the legal band-limit is enforced in software (the node allowed-TX table), not in the filters.</desc>
<defs><marker id="ar" viewBox="0 0 10 10" refX="8" refY="5" markerWidth="7" markerHeight="7" orient="auto-start-reverse"><path d="M1 1L8 5L1 9" fill="none" stroke="#7a7972" stroke-width="1.6" stroke-linecap="round" stroke-linejoin="round"/></marker></defs>
<style>text{font-family:Arial,Helvetica,sans-serif}.h1{font-size:17px;font-weight:700;fill:#2C2C2A}.h2{font-size:11px;fill:#56554f}.pin{font-size:12px;font-weight:700;fill:#2C2C2A}.sl{font-size:9px;fill:#7a7972}.bn{font-size:12px;font-weight:600;fill:#2C2C2A}.rg{font-size:8.5px;font-weight:600}.modb{font-size:10px;font-weight:600;fill:#2C2C2A}.rng{font-size:8.5px;fill:#56554f}.sp{font-size:10px;fill:#8a8980;font-style:italic}.cap{font-size:10px;fill:#6b6a64}.wire{stroke:#7a7972;stroke-width:1.4;fill:none}.sw{fill:#eef2ff;stroke:#4f46e5;stroke-width:1.6}.nb{stroke:#888780;stroke-width:1.1;stroke-dasharray:4 3;fill:none}</style>
<text class="h1" x="20" y="30">Transmit signal chain – all band paths, with per-device working ranges</text>
<text class="h2" x="20" y="50">Each box shows the device’s technical range. The BPF is cut slice-wide and the LPF cutoff sits just above the slice top, so every box passes the whole port – the legal band-limit is set in software, not the filters.</text>
<rect x="40" y="74" width="120" height="34" rx="6" fill="#E6F1FB" stroke="#185FA5" stroke-width="1.4"/>
<text class="modb" x="100" y="89" text-anchor="middle">7020-SDR exciter</text>
<text class="sl" x="100" y="101" text-anchor="middle">onboard PA ~ +19 dBm</text>
<line class="wire" x1="100" y1="108" x2="100" y2="130"/>
<rect class="sw" x="40" y="130" width="120" height="552" rx="8"/>
<text x="100" y="150" text-anchor="middle" font-size="13" font-weight="700" fill="#4f46e5">PE42512A</text>
<text x="100" y="166" text-anchor="middle" font-size="10" fill="#6366f1">SP12T band-select</text>
<text x="100" y="182" text-anchor="middle" font-size="9" fill="#6366f1">low level ~80 mW</text>
<line class="nb" x1="686" y1="130" x2="686" y2="682"/>
<line class="wire" x1="160" y1="153" x2="176" y2="153"/>
<circle cx="160" cy="153" r="2.4" fill="#4f46e5"/>
<text class="pin" x="182" y="152">RF1</text>
<text class="sl" x="182" y="164">4050–6075</text>
<rect x="234" y="137" width="72" height="32" rx="5" fill="#E1F5EE" stroke="#0F6E56" stroke-width="1.2"/>
<text class="bn" x="270" y="151" text-anchor="middle">5 cm</text>
<text class="rg" x="270" y="163" text-anchor="middle" fill="#0F6E56">R1·R2·R3</text>
<line class="wire" x1="306" y1="153" x2="317" y2="153" marker-end="url(#ar)"/>
<rect x="318" y="138" width="50" height="30" rx="5" fill="#ffffff" stroke="#94a3b8" stroke-width="1.1"/>
<text class="modb" x="343" y="151" text-anchor="middle">BPF</text>
<text class="rng" x="343" y="163" text-anchor="middle">4050–6075</text>
<line class="wire" x1="368" y1="153" x2="375" y2="153" marker-end="url(#ar)"/>
<rect x="376" y="138" width="84" height="30" rx="5" fill="#ffffff" stroke="#94a3b8" stroke-width="1.1"/>
<text class="modb" x="418" y="151" text-anchor="middle">CGH40010</text>
<text class="rng" x="418" y="163" text-anchor="middle">DC–6 GHz</text>
<line class="wire" x1="460" y1="153" x2="467" y2="153" marker-end="url(#ar)"/>
<rect x="468" y="138" width="148" height="30" rx="5" fill="#FBF3E7" stroke="#9a7b3c" stroke-width="1.1"/>
<text class="modb" x="542" y="151" text-anchor="middle">final TBD</text>
<text class="rng" x="542" y="163" text-anchor="middle">(µwave)</text>
<line class="wire" x1="616" y1="153" x2="623" y2="153" marker-end="url(#ar)"/>
<rect x="624" y="138" width="50" height="30" rx="5" fill="#ffffff" stroke="#94a3b8" stroke-width="1.1"/>
<text class="modb" x="649" y="151" text-anchor="middle">LPF</text>
<text class="rng" x="649" y="163" text-anchor="middle">≤6330</text>
<line class="wire" x1="674" y1="153" x2="695" y2="153" marker-end="url(#ar)"/>
<rect x="696" y="138" width="86" height="30" rx="5" fill="#F1EFE8" stroke="#888780" stroke-width="1.1"/>
<text class="modb" x="739" y="151" text-anchor="middle">RF out</text>
<text class="rng" x="739" y="163" text-anchor="middle">5 cm – 50 W</text>
<line class="wire" x1="160" y1="199" x2="176" y2="199"/>
<circle cx="160" cy="199" r="2.4" fill="#4f46e5"/>
<text class="pin" x="182" y="198">RF12</text>
<text class="sl" x="182" y="210">2700–4050</text>
<rect x="234" y="183" width="72" height="32" rx="5" fill="#F1EFE8" stroke="#888780" stroke-width="1.2"/>
<text class="bn" x="270" y="197" text-anchor="middle">9 cm</text>
<text class="rg" x="270" y="209" text-anchor="middle" fill="#888780">varies</text>
<line class="wire" x1="306" y1="199" x2="317" y2="199" marker-end="url(#ar)"/>
<rect x="318" y="184" width="50" height="30" rx="5" fill="#ffffff" stroke="#94a3b8" stroke-width="1.1"/>
<text class="modb" x="343" y="197" text-anchor="middle">BPF</text>
<text class="rng" x="343" y="209" text-anchor="middle">2700–4050</text>
<line class="wire" x1="368" y1="199" x2="375" y2="199" marker-end="url(#ar)"/>
<rect x="376" y="184" width="84" height="30" rx="5" fill="#ffffff" stroke="#94a3b8" stroke-width="1.1"/>
<text class="modb" x="418" y="197" text-anchor="middle">CGH40010</text>
<text class="rng" x="418" y="209" text-anchor="middle">DC–6 GHz</text>
<line class="wire" x1="460" y1="199" x2="467" y2="199" marker-end="url(#ar)"/>
<rect x="468" y="184" width="148" height="30" rx="5" fill="#FBF3E7" stroke="#9a7b3c" stroke-width="1.1"/>
<text class="modb" x="542" y="197" text-anchor="middle">final TBD</text>
<text class="rng" x="542" y="209" text-anchor="middle">(µwave)</text>
<line class="wire" x1="616" y1="199" x2="623" y2="199" marker-end="url(#ar)"/>
<rect x="624" y="184" width="50" height="30" rx="5" fill="#ffffff" stroke="#94a3b8" stroke-width="1.1"/>
<text class="modb" x="649" y="197" text-anchor="middle">LPF</text>
<text class="rng" x="649" y="209" text-anchor="middle">≤4220</text>
<line class="wire" x1="674" y1="199" x2="695" y2="199" marker-end="url(#ar)"/>
<rect x="696" y="184" width="86" height="30" rx="5" fill="#F1EFE8" stroke="#888780" stroke-width="1.1"/>
<text class="modb" x="739" y="197" text-anchor="middle">RF out</text>
<text class="rng" x="739" y="209" text-anchor="middle">9 cm – 50 W</text>
<line class="wire" x1="160" y1="245" x2="176" y2="245"/>
<circle cx="160" cy="245" r="2.4" fill="#4f46e5"/>
<text class="pin" x="182" y="244">RF2</text>
<text class="sl" x="182" y="256">1800–2700</text>
<rect x="234" y="229" width="72" height="32" rx="5" fill="#E1F5EE" stroke="#0F6E56" stroke-width="1.2"/>
<text class="bn" x="270" y="243" text-anchor="middle">13 cm</text>
<text class="rg" x="270" y="255" text-anchor="middle" fill="#0F6E56">R1·R2·R3</text>
<line class="wire" x1="306" y1="245" x2="317" y2="245" marker-end="url(#ar)"/>
<rect x="318" y="230" width="50" height="30" rx="5" fill="#ffffff" stroke="#94a3b8" stroke-width="1.1"/>
<text class="modb" x="343" y="243" text-anchor="middle">BPF</text>
<text class="rng" x="343" y="255" text-anchor="middle">1800–2700</text>
<line class="wire" x1="368" y1="245" x2="375" y2="245" marker-end="url(#ar)"/>
<rect x="376" y="230" width="84" height="30" rx="5" fill="#ffffff" stroke="#94a3b8" stroke-width="1.1"/>
<text class="modb" x="418" y="243" text-anchor="middle">CGH40010</text>
<text class="rng" x="418" y="255" text-anchor="middle">DC–6 GHz</text>
<line class="wire" x1="460" y1="245" x2="467" y2="245" marker-end="url(#ar)"/>
<rect x="468" y="230" width="148" height="30" rx="5" fill="#FBF3E7" stroke="#9a7b3c" stroke-width="1.1"/>
<text class="modb" x="542" y="243" text-anchor="middle">final TBD</text>
<text class="rng" x="542" y="255" text-anchor="middle">(µwave)</text>
<line class="wire" x1="616" y1="245" x2="623" y2="245" marker-end="url(#ar)"/>
<rect x="624" y="230" width="50" height="30" rx="5" fill="#ffffff" stroke="#94a3b8" stroke-width="1.1"/>
<text class="modb" x="649" y="243" text-anchor="middle">LPF</text>
<text class="rng" x="649" y="255" text-anchor="middle">≤2810</text>
<line class="wire" x1="674" y1="245" x2="695" y2="245" marker-end="url(#ar)"/>
<rect x="696" y="230" width="86" height="30" rx="5" fill="#F1EFE8" stroke="#888780" stroke-width="1.1"/>
<text class="modb" x="739" y="243" text-anchor="middle">RF out</text>
<text class="rng" x="739" y="255" text-anchor="middle">13 cm – 50 W</text>
<line class="wire" x1="160" y1="291" x2="176" y2="291"/>
<circle cx="160" cy="291" r="2.4" fill="#4f46e5"/>
<text class="pin" x="182" y="290">RF11</text>
<text class="sl" x="182" y="302">1200–1800</text>
<rect x="234" y="275" width="72" height="32" rx="5" fill="#E1F5EE" stroke="#0F6E56" stroke-width="1.2"/>
<text class="bn" x="270" y="289" text-anchor="middle">23 cm</text>
<text class="rg" x="270" y="301" text-anchor="middle" fill="#0F6E56">R1·R2·R3</text>
<line class="wire" x1="306" y1="291" x2="317" y2="291" marker-end="url(#ar)"/>
<rect x="318" y="276" width="50" height="30" rx="5" fill="#ffffff" stroke="#94a3b8" stroke-width="1.1"/>
<text class="modb" x="343" y="289" text-anchor="middle">BPF</text>
<text class="rng" x="343" y="301" text-anchor="middle">1200–1800</text>
<line class="wire" x1="368" y1="291" x2="375" y2="291" marker-end="url(#ar)"/>
<rect x="376" y="276" width="84" height="30" rx="5" fill="#ffffff" stroke="#94a3b8" stroke-width="1.1"/>
<text class="modb" x="418" y="289" text-anchor="middle">CGH40010</text>
<text class="rng" x="418" y="301" text-anchor="middle">DC–6 GHz</text>
<line class="wire" x1="460" y1="291" x2="467" y2="291" marker-end="url(#ar)"/>
<rect x="468" y="276" width="148" height="30" rx="5" fill="#EEEDFE" stroke="#534AB7" stroke-width="1.1"/>
<text class="modb" x="542" y="289" text-anchor="middle">CGH40120F</text>
<text class="rng" x="542" y="301" text-anchor="middle">DC–1.5 GHz</text>
<line class="wire" x1="616" y1="291" x2="623" y2="291" marker-end="url(#ar)"/>
<rect x="624" y="276" width="50" height="30" rx="5" fill="#ffffff" stroke="#94a3b8" stroke-width="1.1"/>
<text class="modb" x="649" y="289" text-anchor="middle">LPF</text>
<text class="rng" x="649" y="301" text-anchor="middle">≤1875</text>
<line class="wire" x1="674" y1="291" x2="695" y2="291" marker-end="url(#ar)"/>
<rect x="696" y="276" width="86" height="30" rx="5" fill="#F1EFE8" stroke="#888780" stroke-width="1.1"/>
<text class="modb" x="739" y="289" text-anchor="middle">RF out</text>
<text class="rng" x="739" y="301" text-anchor="middle">23 cm – 50 W</text>
<line class="wire" x1="160" y1="337" x2="176" y2="337"/>
<circle cx="160" cy="337" r="2.4" fill="#4f46e5"/>
<text class="pin" x="182" y="336">RF3</text>
<text class="sl" x="182" y="348">800–1200</text>
<rect x="234" y="321" width="72" height="32" rx="5" fill="#EEEDFE" stroke="#534AB7" stroke-width="1.2"/>
<text class="bn" x="270" y="335" text-anchor="middle">33 cm</text>
<text class="rg" x="270" y="347" text-anchor="middle" fill="#534AB7">R2</text>
<line class="wire" x1="306" y1="337" x2="317" y2="337" marker-end="url(#ar)"/>
<rect x="318" y="322" width="50" height="30" rx="5" fill="#ffffff" stroke="#94a3b8" stroke-width="1.1"/>
<text class="modb" x="343" y="335" text-anchor="middle">BPF</text>
<text class="rng" x="343" y="347" text-anchor="middle">800–1200</text>
<line class="wire" x1="368" y1="337" x2="375" y2="337" marker-end="url(#ar)"/>
<rect x="376" y="322" width="84" height="30" rx="5" fill="#ffffff" stroke="#94a3b8" stroke-width="1.1"/>
<text class="modb" x="418" y="335" text-anchor="middle">CGH40010</text>
<text class="rng" x="418" y="347" text-anchor="middle">DC–6 GHz</text>
<line class="wire" x1="460" y1="337" x2="467" y2="337" marker-end="url(#ar)"/>
<rect x="468" y="322" width="148" height="30" rx="5" fill="#EEEDFE" stroke="#534AB7" stroke-width="1.1"/>
<text class="modb" x="542" y="335" text-anchor="middle">CGH40120F</text>
<text class="rng" x="542" y="347" text-anchor="middle">DC–1.5 GHz</text>
<line class="wire" x1="616" y1="337" x2="623" y2="337" marker-end="url(#ar)"/>
<rect x="624" y="322" width="50" height="30" rx="5" fill="#ffffff" stroke="#94a3b8" stroke-width="1.1"/>
<text class="modb" x="649" y="335" text-anchor="middle">LPF</text>
<text class="rng" x="649" y="347" text-anchor="middle">≤1250</text>
<line class="wire" x1="674" y1="337" x2="695" y2="337" marker-end="url(#ar)"/>
<rect x="696" y="322" width="86" height="30" rx="5" fill="#F1EFE8" stroke="#888780" stroke-width="1.1"/>
<text class="modb" x="739" y="335" text-anchor="middle">RF out</text>
<text class="rng" x="739" y="347" text-anchor="middle">33 cm – 50 W</text>
<line class="wire" x1="160" y1="383" x2="176" y2="383"/>
<circle cx="160" cy="383" r="2.4" fill="#4f46e5"/>
<text class="pin" x="182" y="382">RF10</text>
<text class="sl" x="182" y="394">533–800</text>
<rect x="234" y="368" width="440" height="30" rx="6" fill="#F4F2EC" stroke="#cfcdc5" stroke-width="1" stroke-dasharray="4 3"/>
<text class="sp" x="248" y="387">spare – this 1.5:1 slice has no amateur allocation; leave unpopulated</text>
<line class="wire" x1="160" y1="429" x2="176" y2="429"/>
<circle cx="160" cy="429" r="2.4" fill="#4f46e5"/>
<text class="pin" x="182" y="428">RF4</text>
<text class="sl" x="182" y="440">355–533</text>
<rect x="234" y="413" width="72" height="32" rx="5" fill="#E1F5EE" stroke="#0F6E56" stroke-width="1.2"/>
<text class="bn" x="270" y="427" text-anchor="middle">70 cm</text>
<text class="rg" x="270" y="439" text-anchor="middle" fill="#0F6E56">R1·R2·R3</text>
<line class="wire" x1="306" y1="429" x2="317" y2="429" marker-end="url(#ar)"/>
<rect x="318" y="414" width="50" height="30" rx="5" fill="#ffffff" stroke="#94a3b8" stroke-width="1.1"/>
<text class="modb" x="343" y="427" text-anchor="middle">BPF</text>
<text class="rng" x="343" y="439" text-anchor="middle">355–533</text>
<line class="wire" x1="368" y1="429" x2="375" y2="429" marker-end="url(#ar)"/>
<rect x="376" y="414" width="84" height="30" rx="5" fill="#ffffff" stroke="#94a3b8" stroke-width="1.1"/>
<text class="modb" x="418" y="427" text-anchor="middle">CGH40010</text>
<text class="rng" x="418" y="439" text-anchor="middle">DC–6 GHz</text>
<line class="wire" x1="460" y1="429" x2="467" y2="429" marker-end="url(#ar)"/>
<rect x="468" y="414" width="148" height="30" rx="5" fill="#EEEDFE" stroke="#534AB7" stroke-width="1.1"/>
<text class="modb" x="542" y="427" text-anchor="middle">CGH40120F</text>
<text class="rng" x="542" y="439" text-anchor="middle">DC–1.5 GHz</text>
<line class="wire" x1="616" y1="429" x2="623" y2="429" marker-end="url(#ar)"/>
<rect x="624" y="414" width="50" height="30" rx="5" fill="#ffffff" stroke="#94a3b8" stroke-width="1.1"/>
<text class="modb" x="649" y="427" text-anchor="middle">LPF</text>
<text class="rng" x="649" y="439" text-anchor="middle">≤555</text>
<line class="wire" x1="674" y1="429" x2="695" y2="429" marker-end="url(#ar)"/>
<rect x="696" y="414" width="86" height="30" rx="5" fill="#F1EFE8" stroke="#888780" stroke-width="1.1"/>
<text class="modb" x="739" y="427" text-anchor="middle">RF out</text>
<text class="rng" x="739" y="439" text-anchor="middle">70 cm – 50 W</text>
<line class="wire" x1="160" y1="475" x2="176" y2="475"/>
<circle cx="160" cy="475" r="2.4" fill="#4f46e5"/>
<text class="pin" x="182" y="474">RF9</text>
<text class="sl" x="182" y="486">237–355</text>
<rect x="234" y="460" width="440" height="30" rx="6" fill="#F4F2EC" stroke="#cfcdc5" stroke-width="1" stroke-dasharray="4 3"/>
<text class="sp" x="248" y="479">spare – this 1.5:1 slice has no amateur allocation; leave unpopulated</text>
<line class="wire" x1="160" y1="521" x2="176" y2="521"/>
<circle cx="160" cy="521" r="2.4" fill="#4f46e5"/>
<text class="pin" x="182" y="520">RF5</text>
<text class="sl" x="182" y="532">158–237</text>
<rect x="234" y="505" width="72" height="32" rx="5" fill="#EEEDFE" stroke="#534AB7" stroke-width="1.2"/>
<text class="bn" x="270" y="519" text-anchor="middle">1.25 m</text>
<text class="rg" x="270" y="531" text-anchor="middle" fill="#534AB7">R2</text>
<line class="wire" x1="306" y1="521" x2="317" y2="521" marker-end="url(#ar)"/>
<rect x="318" y="506" width="50" height="30" rx="5" fill="#ffffff" stroke="#94a3b8" stroke-width="1.1"/>
<text class="modb" x="343" y="519" text-anchor="middle">BPF</text>
<text class="rng" x="343" y="531" text-anchor="middle">158–237</text>
<line class="wire" x1="368" y1="521" x2="375" y2="521" marker-end="url(#ar)"/>
<rect x="376" y="506" width="84" height="30" rx="5" fill="#ffffff" stroke="#94a3b8" stroke-width="1.1"/>
<text class="modb" x="418" y="519" text-anchor="middle">CGH40010</text>
<text class="rng" x="418" y="531" text-anchor="middle">DC–6 GHz</text>
<line class="wire" x1="460" y1="521" x2="467" y2="521" marker-end="url(#ar)"/>
<rect x="468" y="506" width="148" height="30" rx="5" fill="#E1F5EE" stroke="#0F6E56" stroke-width="1.1"/>
<text class="modb" x="542" y="519" text-anchor="middle">MRF101AN</text>
<text class="rng" x="542" y="531" text-anchor="middle">1.8–250 MHz</text>
<line class="wire" x1="616" y1="521" x2="623" y2="521" marker-end="url(#ar)"/>
<rect x="624" y="506" width="50" height="30" rx="5" fill="#ffffff" stroke="#94a3b8" stroke-width="1.1"/>
<text class="modb" x="649" y="519" text-anchor="middle">LPF</text>
<text class="rng" x="649" y="531" text-anchor="middle">≤250</text>
<line class="wire" x1="674" y1="521" x2="695" y2="521" marker-end="url(#ar)"/>
<rect x="696" y="506" width="86" height="30" rx="5" fill="#F1EFE8" stroke="#888780" stroke-width="1.1"/>
<text class="modb" x="739" y="519" text-anchor="middle">RF out</text>
<text class="rng" x="739" y="531" text-anchor="middle">1.25 m – 50 W</text>
<line class="wire" x1="160" y1="567" x2="176" y2="567"/>
<circle cx="160" cy="567" r="2.4" fill="#4f46e5"/>
<text class="pin" x="182" y="566">RF8</text>
<text class="sl" x="182" y="578">105–158</text>
<rect x="234" y="551" width="72" height="32" rx="5" fill="#E1F5EE" stroke="#0F6E56" stroke-width="1.2"/>
<text class="bn" x="270" y="565" text-anchor="middle">2 m</text>
<text class="rg" x="270" y="577" text-anchor="middle" fill="#0F6E56">R1·R2·R3</text>
<line class="wire" x1="306" y1="567" x2="317" y2="567" marker-end="url(#ar)"/>
<rect x="318" y="552" width="50" height="30" rx="5" fill="#ffffff" stroke="#94a3b8" stroke-width="1.1"/>
<text class="modb" x="343" y="565" text-anchor="middle">BPF</text>
<text class="rng" x="343" y="577" text-anchor="middle">105–158</text>
<line class="wire" x1="368" y1="567" x2="375" y2="567" marker-end="url(#ar)"/>
<rect x="376" y="552" width="84" height="30" rx="5" fill="#ffffff" stroke="#94a3b8" stroke-width="1.1"/>
<text class="modb" x="418" y="565" text-anchor="middle">CGH40010</text>
<text class="rng" x="418" y="577" text-anchor="middle">DC–6 GHz</text>
<line class="wire" x1="460" y1="567" x2="467" y2="567" marker-end="url(#ar)"/>
<rect x="468" y="552" width="148" height="30" rx="5" fill="#E1F5EE" stroke="#0F6E56" stroke-width="1.1"/>
<text class="modb" x="542" y="565" text-anchor="middle">MRF101AN</text>
<text class="rng" x="542" y="577" text-anchor="middle">1.8–250 MHz</text>
<line class="wire" x1="616" y1="567" x2="623" y2="567" marker-end="url(#ar)"/>
<rect x="624" y="552" width="50" height="30" rx="5" fill="#ffffff" stroke="#94a3b8" stroke-width="1.1"/>
<text class="modb" x="649" y="565" text-anchor="middle">LPF</text>
<text class="rng" x="649" y="577" text-anchor="middle">≤165</text>
<line class="wire" x1="674" y1="567" x2="695" y2="567" marker-end="url(#ar)"/>
<rect x="696" y="552" width="86" height="30" rx="5" fill="#F1EFE8" stroke="#888780" stroke-width="1.1"/>
<text class="modb" x="739" y="565" text-anchor="middle">RF out</text>
<text class="rng" x="739" y="577" text-anchor="middle">2 m – 50 W</text>
<line class="wire" x1="160" y1="613" x2="176" y2="613"/>
<circle cx="160" cy="613" r="2.4" fill="#4f46e5"/>
<text class="pin" x="182" y="612">RF6</text>
<text class="sl" x="182" y="624">70–105</text>
<rect x="234" y="597" width="72" height="32" rx="5" fill="#E6F1FB" stroke="#185FA5" stroke-width="1.2"/>
<text class="bn" x="270" y="611" text-anchor="middle">4 m</text>
<text class="rg" x="270" y="623" text-anchor="middle" fill="#185FA5">R1</text>
<line class="wire" x1="306" y1="613" x2="317" y2="613" marker-end="url(#ar)"/>
<rect x="318" y="598" width="50" height="30" rx="5" fill="#ffffff" stroke="#94a3b8" stroke-width="1.1"/>
<text class="modb" x="343" y="611" text-anchor="middle">BPF</text>
<text class="rng" x="343" y="623" text-anchor="middle">70–105</text>
<line class="wire" x1="368" y1="613" x2="375" y2="613" marker-end="url(#ar)"/>
<rect x="376" y="598" width="84" height="30" rx="5" fill="#ffffff" stroke="#94a3b8" stroke-width="1.1"/>
<text class="modb" x="418" y="611" text-anchor="middle">CGH40010</text>
<text class="rng" x="418" y="623" text-anchor="middle">DC–6 GHz</text>
<line class="wire" x1="460" y1="613" x2="467" y2="613" marker-end="url(#ar)"/>
<rect x="468" y="598" width="148" height="30" rx="5" fill="#E1F5EE" stroke="#0F6E56" stroke-width="1.1"/>
<text class="modb" x="542" y="611" text-anchor="middle">MRF101AN</text>
<text class="rng" x="542" y="623" text-anchor="middle">1.8–250 MHz</text>
<line class="wire" x1="616" y1="613" x2="623" y2="613" marker-end="url(#ar)"/>
<rect x="624" y="598" width="50" height="30" rx="5" fill="#ffffff" stroke="#94a3b8" stroke-width="1.1"/>
<text class="modb" x="649" y="611" text-anchor="middle">LPF</text>
<text class="rng" x="649" y="623" text-anchor="middle">≤110</text>
<line class="wire" x1="674" y1="613" x2="695" y2="613" marker-end="url(#ar)"/>
<rect x="696" y="598" width="86" height="30" rx="5" fill="#F1EFE8" stroke="#888780" stroke-width="1.1"/>
<text class="modb" x="739" y="611" text-anchor="middle">RF out</text>
<text class="rng" x="739" y="623" text-anchor="middle">4 m – 50 W</text>
<line class="wire" x1="160" y1="659" x2="176" y2="659"/>
<circle cx="160" cy="659" r="2.4" fill="#4f46e5"/>
<text class="pin" x="182" y="658">RF7</text>
<text class="sl" x="182" y="670">park</text>
<rect x="234" y="644" width="440" height="30" rx="6" fill="#F4F2EC" stroke="#cfcdc5" stroke-width="1" stroke-dasharray="4 3"/>
<text class="sp" x="248" y="663">low-level 50 Ω dummy / TX-inhibit park – cold-switch target</text>
<text class="cap" x="690" y="126" font-weight="700" fill="#888780">node boundary →</text>
<text class="rng" x="343" y="126" text-anchor="middle" font-weight="700">BPF (slice)</text>
<text class="rng" x="418" y="126" text-anchor="middle" font-weight="700">driver</text>
<text class="rng" x="542" y="126" text-anchor="middle" font-weight="700">final</text>
<text class="rng" x="649" y="126" text-anchor="middle" font-weight="700">LPF (≤fc)</text>
<text class="cap" x="20" y="706"><tspan font-weight="700">Reading the ranges.</tspan> BPF = slice-wide cleanup passband. Driver CGH40010 = DC–6 GHz. Final MRF101AN = 1.8–250 MHz, CGH40120F = DC–1.5 GHz – both broadband.</text>
<text class="cap" x="20" y="721">LPF passes DC up to its cutoff fc (~1.1x the band top); it is a valid harmonic filter only in the ~1.5:1 window just below fc.</text>
<text class="cap" x="20" y="740"><tspan font-weight="700">So for RF8 (2 m):</tspan> BPF, driver, final and LPF all pass the entire 105–158 slice – the software allowed-TX table is what holds emission to the licensed segment (144–148, plus any authorized MARS/CAP adjacent to it).</text>
<text class="cap" x="20" y="755">The band-select slice, the slice-wide BPF and the LPF all pass the full port; the software allowed-TX table sets the legal band (one final still serves several bands).</text>
<text class="h2" x="20" y="780" font-weight="700">Final by frequency:</text>
<rect x="150" y="770" width="12" height="12" rx="3" fill="#E1F5EE" stroke="#0F6E56" stroke-width="1"/>
<text class="cap" x="167" y="780">MRF101AN LDMOS, 1.8–250 MHz</text>
<rect x="339" y="770" width="12" height="12" rx="3" fill="#EEEDFE" stroke="#534AB7" stroke-width="1"/>
<text class="cap" x="356" y="780">CGH40120F GaN, DC–1.5 GHz</text>
<rect x="518" y="770" width="12" height="12" rx="3" fill="#FBF3E7" stroke="#9a7b3c" stroke-width="1"/>
<text class="cap" x="535" y="780">microwave final TBD (13 / 9 / 5 cm)</text>
<text class="cap" x="20" y="800">Band-box colour = IARU region availability (R1 blue / all-region teal / R2 purple / varies grey). Ports loss-tiered (RF1/RF12 lowest loss). See docs/regions.md, filters.md.</text>
</svg>