<svg xmlns="http://www.w3.org/2000/svg" width="680" viewBox="0 0 680 680" role="img">
<title>VHF/UHF transmit chain ending at per-band low-pass filters (node boundary)</title>
<desc>7020-SDR exciter with onboard PA feeds the PE42512A SP12T band-select, switching at low level (~80 mW) to one of four per-band chains: bandpass, CGH40010 driver, MRF101AN (2m, 222) or CGH40120F (70cm, 902) final inside the control wrapper, and a low-pass filter. The chain ends at four per-band 50 W RF outputs; how those outputs are routed - direct to antennas, through a triplexer, a switch, or a dummy load with RF-exposure lockout - is defined per station, not by the node design. Bands shown are the US / IARU R2 example; the band-select covers 4 m-5.8 GHz, so populate your region's slices.</desc>
<style>
text{font-family:Arial,Helvetica,sans-serif}
.t{font-size:14px;fill:#2C2C2A}.ts{font-size:12px;fill:#444441}.th{font-size:14px;font-weight:500;fill:#2C2C2A}
.c-blue rect{fill:#E6F1FB;stroke:#185FA5}.c-gray rect{fill:#F1EFE8;stroke:#888780}
.c-teal rect{fill:#E1F5EE;stroke:#0F6E56}.c-purple rect{fill:#EEEDFE;stroke:#534AB7}
.arr{stroke:#73726c;stroke-width:1.5;fill:none}
</style>
<defs><marker id="arrow" viewBox="0 0 10 10" refX="8" refY="5" markerWidth="6" markerHeight="6" orient="auto-start-reverse"><path d="M2 1L8 5L2 9" fill="none" stroke="#73726c" stroke-width="1.5" stroke-linecap="round" stroke-linejoin="round"/></marker></defs>

<g class="c-blue"><rect x="240" y="40" width="200" height="52" rx="8" stroke-width="0.5"/>
<text class="th" x="340" y="60" text-anchor="middle" dominant-baseline="central">7020-SDR</text>
<text class="ts" x="340" y="78" text-anchor="middle" dominant-baseline="central">onboard PA - ~+15-19 dBm</text></g>
<line x1="340" y1="92" x2="340" y2="106" class="arr" marker-end="url(#arrow)"/>

<g class="c-gray"><rect x="240" y="108" width="200" height="56" rx="8" stroke-width="0.5"/>
<text class="th" x="340" y="124" text-anchor="middle" dominant-baseline="central">TX band-select</text>
<text class="ts" x="340" y="140" text-anchor="middle" dominant-baseline="central">PE42512A SP12T</text>
<text class="ts" x="340" y="155" text-anchor="middle" dominant-baseline="central">low level - ~80 mW</text></g>

<line x1="340" y1="164" x2="116" y2="178" class="arr" marker-end="url(#arrow)"/>
<line x1="340" y1="164" x2="266" y2="178" class="arr" marker-end="url(#arrow)"/>
<line x1="340" y1="164" x2="414" y2="178" class="arr" marker-end="url(#arrow)"/>
<line x1="340" y1="164" x2="562" y2="178" class="arr" marker-end="url(#arrow)"/>

<g class="c-gray"><rect x="50" y="180" width="130" height="52" rx="8" stroke-width="0.5"/>
<text class="th" x="115" y="198" text-anchor="middle" dominant-baseline="central">2 m</text>
<text class="ts" x="115" y="216" text-anchor="middle" dominant-baseline="central">BPF 144-148</text></g>
<g class="c-gray"><rect x="200" y="180" width="130" height="52" rx="8" stroke-width="0.5"/>
<text class="th" x="265" y="198" text-anchor="middle" dominant-baseline="central">222 MHz</text>
<text class="ts" x="265" y="216" text-anchor="middle" dominant-baseline="central">BPF 222-225</text></g>
<g class="c-gray"><rect x="350" y="180" width="130" height="52" rx="8" stroke-width="0.5"/>
<text class="th" x="415" y="198" text-anchor="middle" dominant-baseline="central">70 cm</text>
<text class="ts" x="415" y="216" text-anchor="middle" dominant-baseline="central">BPF 420-450</text></g>
<g class="c-gray"><rect x="500" y="180" width="130" height="52" rx="8" stroke-width="0.5"/>
<text class="th" x="565" y="198" text-anchor="middle" dominant-baseline="central">902 MHz</text>
<text class="ts" x="565" y="216" text-anchor="middle" dominant-baseline="central">BPF 902-928</text></g>

<line x1="115" y1="232" x2="115" y2="244" class="arr" marker-end="url(#arrow)"/>
<line x1="265" y1="232" x2="265" y2="244" class="arr" marker-end="url(#arrow)"/>
<line x1="415" y1="232" x2="415" y2="244" class="arr" marker-end="url(#arrow)"/>
<line x1="565" y1="232" x2="565" y2="244" class="arr" marker-end="url(#arrow)"/>

<g class="c-gray"><rect x="50" y="246" width="130" height="48" rx="8" stroke-width="0.5"/>
<text class="th" x="115" y="264" text-anchor="middle" dominant-baseline="central">Driver</text>
<text class="ts" x="115" y="280" text-anchor="middle" dominant-baseline="central">CGH40010</text></g>
<g class="c-gray"><rect x="200" y="246" width="130" height="48" rx="8" stroke-width="0.5"/>
<text class="th" x="265" y="264" text-anchor="middle" dominant-baseline="central">Driver</text>
<text class="ts" x="265" y="280" text-anchor="middle" dominant-baseline="central">CGH40010</text></g>
<g class="c-gray"><rect x="350" y="246" width="130" height="48" rx="8" stroke-width="0.5"/>
<text class="th" x="415" y="264" text-anchor="middle" dominant-baseline="central">Driver</text>
<text class="ts" x="415" y="280" text-anchor="middle" dominant-baseline="central">CGH40010</text></g>
<g class="c-gray"><rect x="500" y="246" width="130" height="48" rx="8" stroke-width="0.5"/>
<text class="th" x="565" y="264" text-anchor="middle" dominant-baseline="central">Driver</text>
<text class="ts" x="565" y="280" text-anchor="middle" dominant-baseline="central">CGH40010</text></g>

<line x1="115" y1="294" x2="115" y2="314" class="arr" marker-end="url(#arrow)"/>
<line x1="265" y1="294" x2="265" y2="314" class="arr" marker-end="url(#arrow)"/>
<line x1="415" y1="294" x2="415" y2="314" class="arr" marker-end="url(#arrow)"/>
<line x1="565" y1="294" x2="565" y2="314" class="arr" marker-end="url(#arrow)"/>

<text class="ts" x="340" y="307" text-anchor="middle">Control wrapper</text>
<rect x="40" y="312" width="600" height="66" rx="8" fill="none" stroke="#BA7517" stroke-width="0.8" stroke-dasharray="4 3"/>

<g class="c-teal"><rect x="50" y="316" width="130" height="56" rx="8" stroke-width="0.5"/>
<text class="th" x="115" y="334" text-anchor="middle" dominant-baseline="central">Final</text>
<text class="ts" x="115" y="352" text-anchor="middle" dominant-baseline="central">MRF101AN</text></g>
<g class="c-teal"><rect x="200" y="316" width="130" height="56" rx="8" stroke-width="0.5"/>
<text class="th" x="265" y="334" text-anchor="middle" dominant-baseline="central">Final</text>
<text class="ts" x="265" y="352" text-anchor="middle" dominant-baseline="central">MRF101AN</text></g>
<g class="c-purple"><rect x="350" y="316" width="130" height="56" rx="8" stroke-width="0.5"/>
<text class="th" x="415" y="334" text-anchor="middle" dominant-baseline="central">Final</text>
<text class="ts" x="415" y="352" text-anchor="middle" dominant-baseline="central">CGH40120F</text></g>
<g class="c-purple"><rect x="500" y="316" width="130" height="56" rx="8" stroke-width="0.5"/>
<text class="th" x="565" y="334" text-anchor="middle" dominant-baseline="central">Final</text>
<text class="ts" x="565" y="352" text-anchor="middle" dominant-baseline="central">CGH40120F</text></g>

<line x1="115" y1="372" x2="115" y2="408" class="arr" marker-end="url(#arrow)"/>
<line x1="265" y1="372" x2="265" y2="408" class="arr" marker-end="url(#arrow)"/>
<line x1="415" y1="372" x2="415" y2="408" class="arr" marker-end="url(#arrow)"/>
<line x1="565" y1="372" x2="565" y2="408" class="arr" marker-end="url(#arrow)"/>

<g class="c-gray"><rect x="50" y="410" width="130" height="56" rx="8" stroke-width="0.5"/>
<text class="th" x="115" y="428" text-anchor="middle" dominant-baseline="central">LPF</text>
<text class="ts" x="115" y="446" text-anchor="middle" dominant-baseline="central">fc 165 MHz</text></g>
<g class="c-gray"><rect x="200" y="410" width="130" height="56" rx="8" stroke-width="0.5"/>
<text class="th" x="265" y="428" text-anchor="middle" dominant-baseline="central">LPF</text>
<text class="ts" x="265" y="446" text-anchor="middle" dominant-baseline="central">fc 250 MHz</text></g>
<g class="c-gray"><rect x="350" y="410" width="130" height="56" rx="8" stroke-width="0.5"/>
<text class="th" x="415" y="428" text-anchor="middle" dominant-baseline="central">LPF</text>
<text class="ts" x="415" y="446" text-anchor="middle" dominant-baseline="central">fc 500 MHz</text></g>
<g class="c-gray"><rect x="500" y="410" width="130" height="56" rx="8" stroke-width="0.5"/>
<text class="th" x="565" y="428" text-anchor="middle" dominant-baseline="central">LPF</text>
<text class="ts" x="565" y="446" text-anchor="middle" dominant-baseline="central">fc 1010 MHz</text></g>

<line x1="115" y1="466" x2="115" y2="500" class="arr" marker-end="url(#arrow)"/>
<line x1="265" y1="466" x2="265" y2="500" class="arr" marker-end="url(#arrow)"/>
<line x1="415" y1="466" x2="415" y2="500" class="arr" marker-end="url(#arrow)"/>
<line x1="565" y1="466" x2="565" y2="500" class="arr" marker-end="url(#arrow)"/>

<g class="c-gray"><rect x="50" y="502" width="130" height="48" rx="8" stroke-width="0.5"/>
<text class="th" x="115" y="520" text-anchor="middle" dominant-baseline="central">RF out</text>
<text class="ts" x="115" y="538" text-anchor="middle" dominant-baseline="central">2 m - 50 W</text></g>
<g class="c-gray"><rect x="200" y="502" width="130" height="48" rx="8" stroke-width="0.5"/>
<text class="th" x="265" y="520" text-anchor="middle" dominant-baseline="central">RF out</text>
<text class="ts" x="265" y="538" text-anchor="middle" dominant-baseline="central">222 - 50 W</text></g>
<g class="c-gray"><rect x="350" y="502" width="130" height="48" rx="8" stroke-width="0.5"/>
<text class="th" x="415" y="520" text-anchor="middle" dominant-baseline="central">RF out</text>
<text class="ts" x="415" y="538" text-anchor="middle" dominant-baseline="central">70 cm - 50 W</text></g>
<g class="c-gray"><rect x="500" y="502" width="130" height="48" rx="8" stroke-width="0.5"/>
<text class="th" x="565" y="520" text-anchor="middle" dominant-baseline="central">RF out</text>
<text class="ts" x="565" y="538" text-anchor="middle" dominant-baseline="central">902 - 50 W</text></g>

<rect x="40" y="568" width="600" height="56" rx="8" fill="none" stroke="#888780" stroke-width="0.8" stroke-dasharray="4 3"/>
<text class="th" x="340" y="588" text-anchor="middle">Node boundary - per-band 50 W RF outputs</text>
<text class="ts" x="340" y="608" text-anchor="middle">Routing is station-defined: antenna, triplexer, switch, or dummy load (+ RF-exposure lockout)</text>

<rect class="c-teal" x="200" y="634" width="13" height="13" rx="3" stroke-width="0.5"/>
<text class="ts" x="220" y="644">LDMOS final</text>
<rect class="c-purple" x="340" y="634" width="13" height="13" rx="3" stroke-width="0.5"/>
<text class="ts" x="360" y="644">GaN final</text>
<text class="ts" x="340" y="668" text-anchor="middle">Bands shown = US / IARU R2 example; band-select covers 4 m-5.8 GHz (see docs/regions.md)</text>
</svg>
